<svg width="45" height="45" viewBox="0 0 45 45" fill="none" xmlns="http://www.w3.org/2000/svg">
<path fill-rule="evenodd" clip-rule="evenodd" d="M21 15H13V16H14V27H19.732L18.1244 33H19.1596L20.7673 27H24.2327L25.8404 33H26.8756L25.2679 27H31V16H32V15H24C24 14.4477 23.5523 14 23 14H22C21.4477 14 21 14.4477 21 15ZM30 16V26H15V16H30Z" fill="#1BCEA5"/>
<path fill-rule="evenodd" clip-rule="evenodd" d="M22.5 44C34.3741 44 44 34.3741 44 22.5C44 10.6259 34.3741 1 22.5 1C10.6259 1 1 10.6259 1 22.5C1 34.3741 10.6259 44 22.5 44ZM22.5 45C34.9264 45 45 34.9264 45 22.5C45 10.0736 34.9264 0 22.5 0C10.0736 0 0 10.0736 0 22.5C0 34.9264 10.0736 45 22.5 45Z" fill="#1BCEA5"/>
</svg>
