<svg width="45" height="45" viewBox="0 0 45 45" fill="none" xmlns="http://www.w3.org/2000/svg">
<path fill-rule="evenodd" clip-rule="evenodd" d="M14.8947 32H14V17.6842C14 16.2018 15.2018 15 16.6842 15H28.3158C29.7982 15 31 16.2018 31 17.6842V25.7368C31 27.2193 29.7982 28.421 28.3158 28.421H18.4737L14.8947 32ZM14.8947 30.7347L18.1031 27.5263H28.3158C29.3041 27.5263 30.1053 26.7252 30.1053 25.7368V17.6842C30.1053 16.6959 29.3041 15.8947 28.3158 15.8947H16.6842C15.6959 15.8947 14.8947 16.6959 14.8947 17.6842V30.7347ZM27.4211 18.5789H17.5789V19.4737H27.4211V18.5789ZM17.5789 21.2632H27.4211V22.1579H17.5789V21.2632ZM24.7368 23.9474H17.5789V24.8421H24.7368V23.9474Z" fill="#1BCEA5"/>
<path fill-rule="evenodd" clip-rule="evenodd" d="M22.5 44C34.3741 44 44 34.3741 44 22.5C44 10.6259 34.3741 1 22.5 1C10.6259 1 1 10.6259 1 22.5C1 34.3741 10.6259 44 22.5 44ZM22.5 45C34.9264 45 45 34.9264 45 22.5C45 10.0736 34.9264 0 22.5 0C10.0736 0 0 10.0736 0 22.5C0 34.9264 10.0736 45 22.5 45Z" fill="#1BCEA5"/>
</svg>
