<svg width="45" height="45" viewBox="0 0 45 45" fill="none" xmlns="http://www.w3.org/2000/svg">
<path fill-rule="evenodd" clip-rule="evenodd" d="M24 30C25.1046 30 26 29.1046 26 28V25.9782C27.8041 24.8231 29 22.8012 29 20.5C29 16.9102 26.0898 14 22.5 14C18.9102 14 16 16.9101 16 20.5C16 22.8012 17.1958 24.8231 19 25.9782V28C19 29.1046 19.8954 30 21 30H24ZM23 33C24.1046 33 25 32.1046 25 31H24C24 31.5523 23.5523 32 23 32H22C21.4477 32 21 31.5523 21 31H20C20 32.1046 20.8954 33 22 33H23ZM20 28C20 28.5523 20.4477 29 21 29H24C24.5523 29 25 28.5523 25 28V25.4003C26.7808 24.4899 28 22.6373 28 20.5C28 17.4624 25.5376 15 22.5 15C19.4624 15 17 17.4624 17 20.5C17 22.6374 18.2192 24.4899 20 25.4003L20 28ZM21.5 18.75L19.1287 21.1213L19.8358 21.8284L21.5 20.1642L23.5 22.1642L25.9571 19.7071L25.25 19L23.5 20.75L21.5 18.75Z" fill="#1BCEA5"/>
<path fill-rule="evenodd" clip-rule="evenodd" d="M22.5 44C34.3741 44 44 34.3741 44 22.5C44 10.6259 34.3741 1 22.5 1C10.6259 1 1 10.6259 1 22.5C1 34.3741 10.6259 44 22.5 44ZM22.5 45C34.9264 45 45 34.9264 45 22.5C45 10.0736 34.9264 0 22.5 0C10.0736 0 0 10.0736 0 22.5C0 34.9264 10.0736 45 22.5 45Z" fill="#1BCEA5"/>
</svg>
